<?xml version="1.0" encoding="utf-8"?>
<svg version="1.1" id="Layer_1" x="0px" y="0px" width="192px" viewBox="0 0 192 192"
    enable-background="new 0 0 192 192" height="192px" xmlns="http://www.w3.org/2000/svg"
    xmlns:bx="https://boxy-svg.com">
    <defs>
        <bx:export>
            <bx:file format="svg" />
        </bx:export>
    </defs>
    <path fill="#1f385e" opacity="1.000000" stroke="none"
        d="M 152.077 107.043 C 151.052 110.2 149.222 113.337 149.142 116.518 C 148.809 129.796 149.002 143.087 149.002 156.686 C 143.018 156.686 137.299 156.686 131.001 156.686 C 131.001 144.097 131.22 131.509 130.875 118.937 C 130.764 114.865 129.177 110.833 128.199 106.032 C 128.434 99.147 128.735 93.013 129.036 86.878 C 132.758 88.693 136.48 90.509 140.559 92.499 C 142.724 91.017 145.523 89.101 148.756 87.568 C 149.462 92.4 149.562 96.869 150.081 101.288 C 150.312 103.257 151.385 105.128 152.077 107.043 Z" />
    <path fill="#1f385e" opacity="1.000000" stroke="none"
        d="M 33.114 105.043 C 30.138 108.546 28.816 112.44 28.911 117.184 C 29.171 130.273 29.001 143.37 29.001 156.73 C 22.914 156.73 17.202 156.73 11.986 156.73 C 11.986 139.916 11.137 123.21 12.299 106.646 C 13.017 96.409 21.617 90.717 30.74 86.598 C 31.454 89.752 31.706 92.546 32.005 95.335 C 32.353 98.573 32.742 101.807 33.114 105.043 Z" />
    <path fill="#1f385e" opacity="1.000000" stroke="none"
        d="M 170.043 86.887 C 179.253 89.084 189.851 103.492 189.224 113.642 C 188.345 127.851 189.002 142.154 189.002 156.708 C 183.317 156.708 177.935 156.708 172.001 156.708 C 172.001 143.921 172.197 131.18 171.876 118.451 C 171.786 114.877 170.18 111.341 169.123 106.975 C 169.332 99.738 169.687 93.312 170.043 86.887 Z" />
    <path fill="#1f385e" opacity="1.000000" stroke="none"
        d="M 68.834 154.001 C 68.881 154.451 68.928 154.901 68.751 155.804 C 68.333 156.429 68.161 156.621 68.012 156.834 C 62.569 156.834 57.125 156.834 51.001 156.834 C 51.001 152.387 51.001 147.991 51.001 143.595 C 51.001 134.654 51.163 125.71 50.91 116.776 C 50.826 113.801 49.679 110.855 48.997 107.031 C 49.317 99.832 49.658 93.5 50 87.167 C 53.358 88.898 56.717 90.628 60.537 92.596 C 61.696 91.765 63.509 90.467 65.678 89.452 C 66.356 93.018 66.936 96.298 66.956 99.582 C 67.052 115.817 66.939 132.053 67.081 148.288 C 67.097 150.197 68.223 152.097 68.834 154.001 Z" />
    <path fill="#1f385e" opacity="1.000000" stroke="none"
        d="M 112.042 106.114 C 111.028 109.968 109.251 113.799 109.14 117.679 C 108.771 130.585 109.001 143.508 109.001 156.976 C 104.771 156.976 100.847 156.976 96.461 156.447 C 96 136.669 95.967 117.42 96.049 98.172 C 96.058 96.098 96.74 94.026 97.11 91.953 C 98.638 91.902 100.389 92.313 101.648 91.705 C 104.307 90.42 106.709 88.602 109.75 87.352 C 110.869 93.838 111.456 99.976 112.042 106.114 Z" />
    <path fill="#1f385e" opacity="1.000000" stroke="none"
        d="M 97.965 91.633 C 97.74 94.026 97.058 96.098 97.049 98.172 C 96.967 117.42 97 136.669 97.001 156.375 C 95.514 156.833 94.027 156.833 91.999 156.833 C 91.999 143.608 91.995 130.366 92.001 117.124 C 92.004 110.607 89.094 105.908 83.226 103.078 C 82.812 102.879 82.242 103.003 81.372 102.45 C 81.333 96.337 81.666 90.752 81.999 85.166 C 88.074 85.153 93.307 87.309 97.965 91.633 Z" />
    <path fill="#1f385e" opacity="1.000000" stroke="none"
        d="M 116.002 42.166 C 123.4 41.403 129.187 44.226 132.773 50.624 C 136.338 56.984 135.861 63.678 131.667 69.527 C 128.058 74.558 122.327 76.206 116.155 75.968 C 115.984 64.164 115.993 53.165 116.002 42.166 Z" />
    <path fill="#1f385e" opacity="1.000000" stroke="none"
        d="&#10;M163.048584,76.070175 &#10;&#9;C156.934982,77.628998 147.337479,72.030579 145.227173,65.506332 &#10;&#9;C141.310211,53.396576 149.670151,41.156715 162.579865,42.551926 &#10;&#9;C163.016708,54.078735 163.032639,65.074455 163.048584,76.070175 &#10;z" />
    <path fill="#1f385e" opacity="1.000000" stroke="none"
        d="M 74.002 42.167 C 82.502 40.74 90.108 46.827 91.918 55.048 C 93.981 64.422 89.42 72.144 80.264 75.327 C 78.757 75.852 77.263 76.416 75.348 76.489 C 74.621 64.733 74.312 53.45 74.002 42.167 Z" />
    <path fill="#1f385e" opacity="1.000000" stroke="none"
        d="&#10;M34.041794,76.115463 &#10;&#9;C27.064796,77.823982 17.508369,71.142174 16.149889,63.047489 &#10;&#9;C14.443750,52.881245 20.773180,41.309559 33.579884,42.553093 &#10;&#9;C34.013783,54.093700 34.027790,65.104584 34.041794,76.115463 &#10;z" />
    <path fill="#1f385e" opacity="1.000000" stroke="none"
        d="M 32.991 76.29 C 32.578 65.33 33.014 54.094 33 42.625 C 42.998 43.078 48.27 48.68 48.882 57.442 C 49.648 68.416 43.79 74.834 32.991 76.29 Z" />
    <path fill="#1f385e" opacity="1.000000" stroke="none"
        d="&#10;M74.609047,42.094616 &#10;&#9;C75.311607,53.449589 75.621490,64.732521 75.966278,76.424545 &#10;&#9;C63.078598,74.759605 58.921207,66.732994 59.039783,58.100147 &#10;&#9;C59.155106,49.704670 65.617355,43.024239 74.609047,42.094616 &#10;z" />
    <path fill="#1f385e" opacity="1.000000" stroke="none"
        d="M 82.55 85.094 C 82.666 90.752 82.333 96.337 81.999 102.379 C 71.658 103.387 68.003 107.309 67.999 117.844 C 67.995 129.587 67.984 141.33 67.905 153.537 C 67.223 152.097 66.097 150.197 66.081 148.288 C 65.939 132.053 66.052 115.817 65.956 99.582 C 65.936 96.298 65.356 93.018 64.997 89.309 C 70.166 85.34 76.012 84.641 82.55 85.094 Z" />
    <path fill="#1f385e" opacity="1.000000" stroke="none"
        d="M 162.442 76.039 C 162.033 65.074 162.017 54.079 162.001 42.625 C 171.047 42.527 176.798 49.357 177.794 58.798 C 178.649 66.898 171.291 74.886 162.442 76.039 Z" />
    <path fill="#1f385e" opacity="1.000000" stroke="none"
        d="&#10;M116.615799,42.094627 &#10;&#9;C116.993027,53.165237 116.984467,64.164024 116.966736,75.638687 &#10;&#9;C108.358040,74.492958 102.232239,68.651360 102.001694,61.852562 &#10;&#9;C101.595978,49.887924 105.294029,44.734009 116.615799,42.094627 &#10;z" />
    <path fill="#1f385e" opacity="1.000000" stroke="none"
        d="&#10;M170.832535,86.540649 &#10;&#9;C170.687393,93.312180 170.331863,99.737511 169.967133,106.638306 &#10;&#9;C163.161743,101.264854 157.650574,101.152306 151.396454,106.892258 &#10;&#9;C150.385498,105.127914 149.311691,103.257416 149.080521,101.288017 &#10;&#9;C148.561798,96.868675 148.461700,92.400192 148.106888,87.553146 &#10;&#9;C155.435959,84.013931 163.004791,84.532990 170.832535,86.540649 &#10;z" />
    <path fill="#1f385e" opacity="1.000000" stroke="none"
        d="M 111.378 105.954 C 110.456 99.976 109.869 93.838 109.113 87.315 C 115.741 83.989 122.659 84.474 129.829 86.536 C 129.735 93.013 129.434 99.147 129.045 105.698 C 123.269 102.765 117.559 100.572 111.378 105.954 Z" />
    <path fill="#1f385e" opacity="1.000000" stroke="none"
        d="M 50.643 86.985 C 50.658 93.5 50.317 99.832 49.966 106.639 C 44.723 102.862 39.137 101.124 32.46 104.877 C 31.742 101.807 31.353 98.573 31.005 95.335 C 30.706 92.546 30.454 89.752 30.091 86.564 C 36.812 84.79 43.615 83.707 50.643 86.985 Z" />
    <path fill="#1f385e" opacity="1.000000" stroke="none"
        d="&#10;M62.268936,156.866425 &#10;&#9;C62.160694,156.621017 62.332607,156.428787 62.680885,156.138550 &#10;&#9;C62.731308,156.312805 62.628586,156.605820 62.268936,156.866425 &#10;z" />
</svg>